<svg xmlns="http://www.w3.org/2000/svg" width="500" height="500" viewBox="0 0 500 500">
<g>
<path d="M 459.02 309.25 C459.01,310.76 458.60,312.00 458.11,312.00 C457.32,312.00 443.02,297.77 433.51,287.51 C427.59,281.13 427.40,280.33 431.09,277.21 C432.86,275.72 437.27,271.74 440.90,268.37 C450.69,259.26 456.02,255.00 457.59,255.00 C459.10,255.00 459.43,262.89 459.16,292.50 C459.09,300.20 459.03,307.74 459.02,309.25 Z" fill="rgb(4,126,194)"/>
<path d="M 459.19 268.16 C459.03,258.20 458.55,255.00 457.59,255.00 C456.02,255.00 450.69,259.26 440.90,268.37 C437.27,271.74 432.86,275.72 431.09,277.21 C428.30,279.57 427.73,280.60 430.20,283.75 C429.85,283.35 429.52,282.97 429.22,282.62 C427.06,280.06 426.96,279.23 427.22,266.21 L 427.50 252.50 L 432.74 252.20 C435.15,252.06 436.51,252.04 437.37,251.37 C438.58,250.44 438.80,248.22 439.53,242.61 C440.26,236.97 439.46,236.04 433.83,236.02 C433.69,236.01 433.56,236.01 433.42,236.01 C431.05,236.01 429.56,236.00 428.62,235.28 C427.00,234.04 427.01,230.68 427.03,221.56 L 427.03 220.64 L 427.05 206.50 L 430.05 210.00 C431.71,211.93 433.78,214.85 434.67,216.50 C435.55,218.15 437.56,220.98 439.14,222.78 C440.71,224.59 442.00,226.60 442.00,227.25 C442.00,227.90 443.04,229.35 444.32,230.47 C445.59,231.59 449.47,236.23 452.93,240.79 L 459.22 249.08 ZM 459.02 309.25 C459.03,308.04 459.07,302.94 459.12,297.00 C459.10,303.32 459.08,307.80 459.06,308.75 C459.06,309.09 459.03,309.41 459.00,309.71 C459.01,309.56 459.02,309.41 459.02,309.25 ZM 447.87 302.39 C453.30,307.84 457.68,312.00 458.11,312.00 C457.64,312.00 453.22,307.78 447.87,302.39 Z" fill="rgb(11,101,163)"/>
<path d="M 459.19 268.16 L 459.22 249.08 L 453.08 240.99 C456.45,245.41 459.57,249.23 460.07,249.54 C460.61,249.88 461.00,263.99 461.00,283.56 C461.00,301.95 460.66,316.94 460.25,316.87 C459.84,316.81 452.75,309.88 444.50,301.48 C436.25,293.09 428.83,286.02 428.00,285.78 C426.77,285.42 426.44,282.59 426.18,270.11 C425.95,259.34 426.20,254.46 427.05,253.44 C427.16,253.31 427.31,253.18 427.49,253.06 L 427.22 266.21 C426.96,279.23 427.06,280.06 429.22,282.62 C429.52,282.97 429.85,283.35 430.20,283.75 C430.99,284.75 432.08,285.97 433.51,287.51 C437.88,292.22 443.25,297.77 447.87,302.39 C453.22,307.78 457.64,312.00 458.11,312.00 C458.55,312.00 458.92,311.01 459.00,309.71 C459.03,309.41 459.06,309.09 459.06,308.75 C459.08,307.80 459.10,303.32 459.12,297.00 C459.14,295.53 459.15,294.02 459.16,292.50 C459.26,281.74 459.28,273.85 459.19,268.16 ZM 429.14 252.41 C430.20,252.14 431.56,252.00 433.10,252.00 C433.28,252.00 433.44,252.00 433.61,252.00 C434.57,252.00 435.34,252.00 435.96,251.93 C435.17,252.08 434.13,252.12 432.74,252.20 Z" fill="rgb(39,131,160)"/>
<path d="M 461.00 244.42 C461.00,253.96 460.98,263.09 460.95,271.46 C460.82,258.42 460.49,249.80 460.07,249.54 C459.57,249.23 456.45,245.41 453.08,240.99 L 452.93 240.79 C449.47,236.23 445.59,231.59 444.32,230.47 C443.04,229.35 442.00,227.90 442.00,227.25 C442.00,226.60 440.71,224.59 439.14,222.78 C437.56,220.98 435.55,218.15 434.67,216.50 C433.78,214.85 431.71,211.93 430.05,210.00 L 427.05 206.50 L 427.03 220.64 L 427.03 221.56 C427.02,222.39 427.02,223.16 427.02,223.89 C426.99,222.51 426.97,221.00 426.95,219.34 L 426.81 204.24 L 442.99 188.37 C451.89,179.64 459.58,172.35 460.09,172.17 C460.63,171.97 461.00,200.97 461.00,244.42 ZM 427.79 234.17 C428.00,234.66 428.27,235.01 428.62,235.28 C428.69,235.34 428.77,235.39 428.86,235.44 C428.62,235.37 428.43,235.29 428.30,235.20 C428.11,235.08 427.94,234.74 427.79,234.17 ZM 435.16 236.04 C437.69,236.15 438.97,236.59 439.48,237.91 C438.97,236.62 437.69,236.17 435.16,236.04 Z" fill="rgb(32,205,219)"/>
<path d="M 426.30 275.06 C426.56,283.37 426.95,285.47 428.00,285.78 C428.83,286.02 436.25,293.09 444.50,301.48 C452.43,309.55 459.29,316.27 460.17,316.84 L 444.58 316.95 C435.55,317.02 427.95,316.72 427.70,316.28 C427.45,315.85 426.92,301.88 426.52,285.22 C426.43,281.42 426.36,278.05 426.30,275.06 ZM 461.00 283.56 L 461.00 316.83 L 460.29 316.84 C460.68,315.98 461.00,301.36 461.00,283.56 ZM 461.00 244.42 L 461.00 283.56 C461.00,279.23 460.98,275.16 460.95,271.46 C460.98,263.09 461.00,253.96 461.00,244.42 ZM 429.14 252.41 L 429.13 252.41 C430.19,252.14 431.54,252.00 433.10,252.00 C431.56,252.00 430.20,252.14 429.14,252.41 ZM 427.04 253.46 C426.96,253.56 426.88,253.69 426.81,253.87 C426.88,253.69 426.95,253.56 427.02,253.47 C427.03,253.47 427.03,253.46 427.04,253.46 Z" fill="rgb(79,167,59)"/>
<path d="M 433.35 236.01 L 433.45 236.01 C433.58,236.01 433.70,236.01 433.83,236.02 C434.31,236.02 434.75,236.03 435.16,236.04 C437.69,236.17 438.97,236.62 439.48,237.91 L 439.48 237.91 C439.87,238.90 439.82,240.39 439.53,242.61 C438.80,248.22 438.58,250.44 437.37,251.37 C437.01,251.66 436.55,251.82 435.96,251.93 C435.36,252.00 434.62,252.00 433.69,252.00 L 433.61 252.00 L 433.41 252.00 C433.31,252.00 433.21,252.00 433.10,252.00 C431.54,252.00 430.19,252.14 429.13,252.41 L 427.50 252.50 L 427.49 253.06 C427.31,253.18 427.16,253.31 427.05,253.44 C427.05,253.45 427.04,253.45 427.04,253.46 C427.03,253.46 427.03,253.47 427.02,253.47 C426.95,253.56 426.88,253.69 426.81,253.87 C426.16,255.50 425.97,260.43 426.18,270.11 C426.22,271.96 426.26,273.60 426.30,275.06 C426.36,278.05 426.43,281.42 426.52,285.22 C426.89,300.59 427.37,313.68 427.64,315.95 C427.59,315.90 427.56,315.84 427.55,315.79 C427.32,315.08 426.82,300.69 426.45,283.82 L 425.77 253.14 L 415.39 253.49 C409.67,253.68 405.00,253.61 405.00,253.33 C405.00,253.04 407.48,249.42 410.50,245.28 C413.52,241.14 416.00,237.36 416.00,236.87 C416.00,236.39 418.49,236.00 421.54,236.00 L 427.09 236.00 L 426.95 220.12 L 426.89 213.11 L 426.95 219.34 C426.97,221.00 426.99,222.51 427.02,223.89 C427.02,229.55 427.09,232.56 427.79,234.17 C427.94,234.74 428.11,235.08 428.30,235.20 C428.43,235.29 428.62,235.37 428.86,235.44 C429.80,236.00 431.22,236.01 433.35,236.01 ZM 392.90 240.47 C391.19,242.41 389.39,244.00 388.90,244.00 C388.40,244.00 388.00,242.20 388.00,240.00 L 388.00 236.00 L 392.00 236.00 C394.20,236.00 396.00,236.21 396.00,236.47 C396.00,236.72 394.60,238.52 392.90,240.47 ZM 430.07 316.66 C433.03,316.87 438.43,316.99 444.48,316.95 C436.96,317.00 432.51,316.93 430.07,316.66 Z" fill="rgb(142,69,96)"/>
<path d="M 250.48 332.96 C250.92,333.67 237.49,333.99 207.81,333.97 L 164.50 333.94 L 161.50 331.33 C159.85,329.89 156.05,326.64 153.06,324.11 C136.45,310.02 113.23,289.34 118.41,293.25 C118.95,293.66 120.05,294.00 120.85,294.00 C122.45,294.00 129.29,288.66 135.59,282.50 C137.84,280.30 142.93,275.44 146.90,271.70 C151.15,267.70 154.00,264.23 153.81,263.29 C153.64,262.41 151.74,260.78 149.60,259.67 C145.76,257.68 139.51,256.55 115.50,253.50 C102.78,251.89 93.89,250.75 79.87,248.94 C70.25,247.70 69.22,247.99 61.36,254.22 C59.09,256.02 54.02,259.92 50.11,262.88 C45.13,266.63 42.72,269.19 42.09,271.38 C41.48,273.46 41.16,265.98 41.10,249.00 C41.04,227.94 41.25,223.93 42.28,225.98 C43.42,228.22 44.47,228.56 53.52,229.63 C59.01,230.27 70.25,231.76 78.50,232.94 C86.75,234.12 100.13,235.96 108.23,237.03 L 122.95 238.98 L 130.48 233.82 C134.05,231.37 136.13,230.08 137.14,228.21 C138.51,225.65 137.89,222.03 136.35,212.95 C136.24,212.33 136.13,211.68 136.02,211.00 C134.95,204.68 133.56,196.35 132.94,192.50 C131.67,184.56 131.13,180.25 129.14,179.41 C126.91,178.47 122.85,181.87 113.89,189.39 C113.28,189.90 112.65,190.43 112.00,190.98 C102.64,198.82 94.64,205.05 98.06,201.84 C103.21,197.00 106.51,194.18 126.51,177.51 C136.41,169.27 144.73,162.28 145.00,161.99 C145.27,161.70 149.68,157.98 154.78,153.73 L 164.07 146.00 L 206.03 146.00 C230.22,146.00 248.00,146.38 248.00,146.90 C248.00,148.09 230.08,161.41 229.40,160.73 C229.11,160.44 232.28,157.59 236.44,154.38 C240.60,151.18 244.00,148.21 244.00,147.78 C244.00,147.35 233.91,147.00 221.57,147.00 C203.85,147.00 198.85,147.29 197.77,148.38 C196.93,149.21 195.72,155.23 194.69,163.63 C191.82,187.11 191.96,188.18 197.19,183.68 C200.22,181.08 201.36,180.22 212.28,172.34 C216.56,169.26 220.29,166.96 220.56,167.23 C220.84,167.51 199.63,183.81 173.42,203.46 C147.22,223.11 126.17,239.52 126.64,239.92 C128.10,241.18 138.69,249.12 159.00,264.18 C207.73,300.31 249.89,332.01 250.48,332.96 ZM 342.32 320.50 L 334.32 333.50 L 296.79 333.76 C260.42,334.02 259.18,333.96 256.88,332.01 L 254.50 330.00 L 257.50 331.49 C261.60,333.53 298.17,333.71 299.84,331.69 C301.58,329.59 315.88,285.84 315.30,284.35 C314.88,283.26 308.74,283.00 282.84,283.00 L 250.90 283.00 L 248.41 277.07 L 245.12 279.07 C241.65,281.18 235.07,286.91 231.58,290.86 C230.44,292.15 227.59,294.54 225.25,296.15 C219.60,300.07 219.70,302.34 225.74,307.80 L 230.50 312.09 L 224.08 307.30 C220.54,304.66 213.79,299.55 209.08,295.94 L 200.50 289.39 L 200.24 239.29 L 199.98 189.20 L 204.74 185.32 C212.24,179.19 221.37,172.60 220.58,173.86 C220.19,174.50 216.64,177.43 212.69,180.37 C204.08,186.79 200.54,190.45 201.49,191.99 C202.25,193.21 215.93,192.54 221.50,191.01 C223.15,190.56 229.35,189.61 235.27,188.90 C242.45,188.04 246.50,187.09 247.42,186.06 C248.42,184.93 248.90,180.47 249.15,169.83 C249.34,161.77 249.23,154.90 248.90,154.57 C248.57,154.24 243.17,157.79 236.90,162.45 C230.63,167.12 225.12,170.95 224.66,170.97 C222.95,171.03 246.72,153.34 249.02,152.83 C250.31,152.54 250.56,160.71 251.00,217.00 L 251.50 281.50 L 302.50 281.74 C330.55,281.87 356.29,281.98 359.69,281.99 L 365.89 282.00 L 358.10 294.75 C353.82,301.76 346.72,313.35 342.32,320.50 ZM 92.00 327.92 L 92.00 334.00 L 41.00 334.00 L 41.01 316.75 C41.03,302.21 41.23,299.89 42.29,301.99 C43.58,304.54 50.33,308.32 63.61,313.93 C67.51,315.59 73.99,318.79 78.00,321.07 C84.68,324.85 85.50,325.08 87.89,323.88 C89.33,323.16 90.84,322.40 91.25,322.20 C91.66,322.00 92.00,324.57 92.00,327.92 ZM 189.41 331.86 C190.32,333.32 246.00,333.50 246.00,332.03 C246.00,331.00 241.57,327.48 225.25,315.52 C219.61,311.38 214.61,308.00 214.15,308.00 C211.76,308.00 188.52,330.42 189.41,331.86 ZM 43.30 167.19 C42.65,167.72 41.94,170.03 41.73,172.33 C41.52,174.62 41.27,169.64 41.17,161.25 L 41.00 146.00 L 66.50 146.00 C88.50,146.00 92.00,146.21 92.00,147.50 C92.00,149.28 91.52,149.35 88.87,147.93 C87.31,147.10 86.27,147.26 84.18,148.66 C81.62,150.38 75.20,153.27 54.00,162.22 C48.78,164.42 43.96,166.66 43.30,167.19 Z" fill="rgb(174,4,8)"/>
<path d="M 92.00 327.92 C92.00,324.57 91.66,322.00 91.25,322.20 C90.84,322.40 89.33,323.16 87.89,323.88 C85.50,325.08 84.68,324.85 78.00,321.07 C73.99,318.79 67.51,315.59 63.61,313.93 C50.33,308.32 43.58,304.54 42.29,301.99 C41.23,299.89 41.03,302.21 41.01,316.75 L 41.00 334.00 L 41.00 146.00 L 41.17 161.25 C41.27,169.64 41.52,174.62 41.73,172.33 C41.94,170.03 42.65,167.72 43.30,167.19 C43.96,166.66 48.78,164.42 54.00,162.22 C75.20,153.27 81.62,150.38 84.18,148.66 C86.27,147.26 87.31,147.10 88.87,147.93 C91.52,149.35 92.00,149.28 92.00,147.50 C92.00,146.21 88.50,146.00 66.50,146.00 L 92.00 146.00 L 92.00 175.50 C92.00,196.23 92.33,205.00 93.10,205.00 C93.57,205.00 97.21,202.23 100.90,199.21 C99.93,200.09 99.03,200.93 98.06,201.84 C94.64,205.05 102.64,198.82 112.00,190.98 C112.65,190.43 113.28,189.90 113.89,189.39 C122.85,181.87 126.91,178.47 129.14,179.41 C131.13,180.25 131.67,184.56 132.94,192.50 C133.56,196.35 134.95,204.68 136.02,211.00 C136.13,211.68 136.24,212.33 136.35,212.95 C137.89,222.03 138.51,225.65 137.14,228.21 C136.13,230.08 134.05,231.37 130.48,233.82 L 122.95 238.98 L 108.23 237.03 C100.13,235.96 86.75,234.12 78.50,232.94 C70.25,231.76 59.01,230.27 53.52,229.63 C44.47,228.56 43.42,228.22 42.28,225.98 C41.25,223.93 41.04,227.94 41.10,249.00 C41.16,265.98 41.48,273.46 42.09,271.38 C42.72,269.19 45.13,266.63 50.11,262.88 C54.02,259.92 59.09,256.02 61.36,254.22 C69.22,247.99 70.25,247.70 79.87,248.94 C93.89,250.75 102.78,251.89 115.50,253.50 C139.51,256.55 145.76,257.68 149.60,259.67 C151.74,260.78 153.64,262.41 153.81,263.29 C154.00,264.23 151.15,267.70 146.90,271.70 C142.93,275.44 137.84,280.30 135.59,282.50 C129.29,288.66 122.45,294.00 120.85,294.00 C120.05,294.00 118.95,293.66 118.41,293.25 C114.87,290.59 124.55,299.35 136.33,309.67 C129.31,303.53 122.39,297.42 117.47,293.00 C105.48,282.24 94.24,273.00 93.13,273.00 C92.32,273.00 92.00,281.54 92.00,303.50 ZM 230.34 311.95 L 225.74 307.80 C219.70,302.34 219.60,300.07 225.25,296.15 C227.59,294.54 230.44,292.15 231.58,290.86 C235.07,286.91 241.65,281.18 245.12,279.07 L 248.41 277.07 L 250.90 283.00 L 282.84 283.00 C308.74,283.00 314.88,283.26 315.30,284.35 C315.88,285.84 301.58,329.59 299.84,331.69 C298.17,333.71 261.60,333.53 257.50,331.49 L 254.50 330.00 L 256.88 332.01 C259.18,333.96 260.42,334.02 296.79,333.76 L 259.38 334.02 L 249.33 326.26 C244.11,322.23 235.83,315.99 230.34,311.95 ZM 174.15 202.98 C147.60,222.86 126.26,239.45 126.64,239.92 C126.17,239.52 147.22,223.11 173.42,203.46 C199.63,183.81 220.84,167.51 220.56,167.23 C220.29,166.96 216.56,169.26 212.28,172.34 C201.36,180.22 200.22,181.08 197.19,183.68 C191.96,188.18 191.82,187.11 194.69,163.63 C195.72,155.23 196.93,149.21 197.77,148.38 C198.85,147.29 203.85,147.00 221.57,147.00 C233.91,147.00 244.00,147.35 244.00,147.78 C244.00,148.21 240.60,151.18 236.44,154.38 C232.28,157.59 229.11,160.44 229.40,160.73 C229.68,161.01 232.83,158.95 236.46,156.34 C233.11,158.82 229.76,161.19 227.50,162.60 C225.85,163.63 224.05,164.99 223.50,165.62 C222.95,166.26 200.74,183.07 174.15,202.98 ZM 387.77 205.33 C387.97,227.96 387.76,233.98 386.77,233.91 C385.46,233.82 355.75,208.45 355.18,206.94 C354.73,205.74 385.23,175.91 386.48,176.33 C387.13,176.54 387.60,186.96 387.77,205.33 ZM 228.58 167.29 C225.86,169.46 224.16,170.99 224.66,170.97 C225.12,170.95 230.63,167.12 236.90,162.45 C243.17,157.79 248.57,154.24 248.90,154.57 C249.23,154.90 249.34,161.77 249.15,169.83 C248.90,180.47 248.42,184.93 247.42,186.06 C246.50,187.09 242.45,188.04 235.27,188.90 C229.35,189.61 223.15,190.56 221.50,191.01 C215.93,192.54 202.25,193.21 201.49,191.99 C200.54,190.45 204.08,186.79 212.69,180.37 C216.64,177.43 220.19,174.50 220.58,173.86 C220.80,173.51 220.25,173.77 219.17,174.47 C221.50,172.74 223.19,171.47 223.52,171.20 C224.24,170.60 226.15,169.13 228.58,167.29 ZM 189.41 331.86 C188.52,330.42 211.76,308.00 214.15,308.00 C214.61,308.00 219.61,311.38 225.25,315.52 C241.57,327.48 246.00,331.00 246.00,332.03 C246.00,333.50 190.32,333.32 189.41,331.86 ZM 251.25 218.00 L 251.50 281.50 L 251.00 217.00 C250.56,160.71 250.31,152.54 249.02,152.83 C248.37,152.97 246.04,154.47 243.05,156.54 C245.10,155.05 246.65,153.94 247.24,153.56 C249.45,152.13 250.08,152.05 250.49,153.14 C250.77,153.89 251.11,183.07 251.25,218.00 ZM 164.64 333.94 L 207.81 333.97 C236.10,333.99 249.62,333.70 250.45,333.06 C249.62,333.70 236.13,334.00 207.92,334.00 L 164.72 334.00 ZM 202.42 290.85 L 209.08 295.94 C213.79,299.55 220.54,304.66 224.08,307.30 L 228.11 310.31 C222.66,306.29 214.83,300.41 210.00,296.69 ZM 107.87 193.13 C107.91,193.09 107.96,193.04 108.00,193.00 C108.28,192.72 116.60,185.75 126.50,177.51 C136.38,169.29 144.68,162.32 145.00,161.99 C144.68,162.32 136.38,169.29 126.51,177.51 C117.44,185.08 111.80,189.79 107.87,193.13 ZM 207.15 183.38 C206.34,184.02 205.53,184.67 204.74,185.32 L 201.59 187.89 L 202.24 187.29 C202.93,186.66 204.79,185.18 207.15,183.38 ZM 142.34 314.90 C145.99,318.07 149.67,321.23 153.06,324.11 C154.33,325.18 155.73,326.38 157.06,327.51 C149.13,320.79 148.18,319.97 143.00,315.48 C142.78,315.29 142.56,315.10 142.34,314.90 ZM 199.98 189.37 L 200.24 239.29 L 200.24 239.37 L 199.98 189.37 Z" fill="rgb(216,3,10)"/>
<path d="M 387.77 205.33 C387.60,186.96 387.13,176.54 386.48,176.33 C385.23,175.91 354.73,205.74 355.18,206.94 C355.74,208.43 384.79,233.25 386.71,233.90 C385.81,233.65 378.27,227.55 369.75,220.17 L 354.00 206.52 L 354.00 173.00 L 388.00 173.00 L 388.00 203.50 C388.00,215.92 387.92,223.69 387.71,228.26 C387.87,223.94 387.87,216.75 387.77,205.33 ZM 355.00 188.54 C355.00,198.06 355.31,201.00 356.29,201.00 C358.07,201.00 383.11,175.99 382.43,174.89 C381.66,173.64 359.29,173.77 356.93,175.04 C355.18,175.97 355.00,177.24 355.00,188.54 ZM 403.00 252.65 C403.00,253.56 401.68,254.00 399.00,254.00 C394.80,254.00 393.58,252.60 397.00,251.71 C398.10,251.42 399.00,250.40 399.00,249.44 C399.00,247.79 399.12,247.80 401.00,249.50 C402.10,250.50 403.00,251.92 403.00,252.65 ZM 392.90 240.47 C393.59,239.68 394.22,238.92 394.74,238.27 L 394.56 238.55 C392.96,240.99 392.99,241.18 395.20,243.10 C397.49,245.10 397.49,245.11 395.27,244.03 C393.46,243.15 392.67,243.33 391.02,244.98 C389.91,246.09 388.77,247.00 388.50,247.00 C388.23,247.00 388.00,244.52 388.00,241.50 L 388.00 240.00 C388.00,242.20 388.40,244.00 388.90,244.00 C389.39,244.00 391.19,242.41 392.90,240.47 ZM 393.00 253.11 C393.00,253.60 392.15,254.00 391.12,254.00 C389.00,254.00 387.50,250.10 389.03,248.57 C389.66,247.94 390.00,248.22 390.00,249.33 C390.00,250.28 390.67,251.32 391.50,251.64 C392.33,251.95 393.00,252.62 393.00,253.11 ZM 395.97 236.40 C395.71,236.18 394.09,236.01 392.12,236.00 L 396.23 236.00 Z" fill="rgb(210,31,98)"/>
<path d="M 355.00 188.54 C355.00,177.24 355.18,175.97 356.93,175.04 C359.29,173.77 381.66,173.64 382.43,174.89 C383.11,175.99 358.07,201.00 356.29,201.00 C355.31,201.00 355.00,198.06 355.00,188.54 ZM 393.00 253.11 C393.00,252.62 392.33,251.95 391.50,251.64 C390.67,251.32 390.00,250.28 390.00,249.33 C390.00,248.22 389.66,247.94 389.03,248.57 C388.71,248.89 388.52,249.31 388.45,249.79 C388.35,248.81 388.29,247.61 388.23,246.13 C388.31,246.68 388.40,247.00 388.50,247.00 C388.77,247.00 389.91,246.09 391.02,244.98 C392.67,243.33 393.46,243.15 395.27,244.03 C395.89,244.33 396.34,244.55 396.61,244.66 C397.03,245.11 397.49,245.62 398.01,246.17 C398.96,247.19 399.84,248.21 400.60,249.14 C399.10,247.81 399.00,247.92 399.00,249.44 C399.00,250.40 398.10,251.42 397.00,251.71 C393.85,252.53 394.64,253.79 398.08,253.98 C397.48,253.99 396.83,254.00 396.12,254.00 C395.81,254.00 395.51,254.00 395.23,254.00 C393.84,254.00 392.74,254.01 391.87,253.93 C392.53,253.79 393.00,253.47 393.00,253.11 ZM 395.32 243.21 L 395.20 243.10 C392.99,241.18 392.96,240.99 394.56,238.55 C393.46,240.24 393.29,240.83 395.32,243.21 ZM 388.00 239.69 L 387.87 236.00 L 388.00 236.00 Z" fill="rgb(232,17,123)"/>
<path d="M 403.00 252.65 C403.00,251.92 402.10,250.50 401.00,249.50 C400.86,249.37 400.72,249.25 400.60,249.14 C399.84,248.21 398.96,247.19 398.01,246.17 C397.49,245.62 397.03,245.11 396.61,244.66 C396.82,244.75 396.93,244.77 396.93,244.72 C397.51,245.49 398.19,246.31 398.92,247.12 C403.58,252.33 404.63,252.04 409.02,244.31 C411.70,239.61 411.83,238.97 410.42,237.56 C409.00,236.15 409.72,236.00 417.97,236.00 L 421.54 236.00 C418.49,236.00 416.00,236.39 416.00,236.87 C416.00,237.36 413.52,241.14 410.50,245.28 C407.48,249.42 405.00,253.04 405.00,253.33 C405.00,253.56 408.27,253.65 412.68,253.56 L 407.53 253.70 C405.00,253.77 402.80,253.84 400.89,253.90 C402.30,253.72 403.00,253.31 403.00,252.65 ZM 395.97 236.40 L 396.13 236.15 L 397.68 236.17 C403.08,236.27 405.48,236.53 403.00,236.74 C398.51,237.14 395.00,239.23 395.00,241.53 C395.00,241.95 395.70,243.10 396.76,244.50 C396.52,244.26 396.04,243.84 395.32,243.21 C393.29,240.83 393.46,240.24 394.56,238.55 L 394.74 238.27 C395.50,237.32 396.00,236.62 396.00,236.47 C396.00,236.44 395.99,236.42 395.97,236.40 ZM 415.07 253.50 C415.18,253.50 415.28,253.49 415.39,253.49 L 425.77 253.14 L 425.78 253.22 ZM 388.41 250.15 C388.26,249.05 388.24,247.66 388.20,245.89 C388.21,245.97 388.22,246.06 388.23,246.13 C388.29,247.61 388.35,248.81 388.45,249.79 C388.43,249.91 388.42,250.03 388.41,250.15 ZM 396.57 254.00 C396.23,254.00 395.92,254.00 395.61,254.00 C395.77,254.00 395.94,254.00 396.12,254.00 C396.27,254.00 396.42,254.00 396.57,254.00 ZM 398.08 253.98 L 397.98 253.98 L 398.08 253.98 L 398.08 253.98 Z" fill="rgb(213,104,107)"/>
<path d="M 388.00 239.69 L 388.00 241.50 C388.00,242.50 388.02,243.45 388.07,244.26 C387.36,239.55 386.38,239.68 383.99,242.17 C380.73,245.57 356.00,278.90 356.00,279.90 C356.00,280.36 358.22,281.04 360.93,281.40 L 365.47 282.00 L 359.69 281.99 C356.29,281.98 330.55,281.87 302.50,281.74 L 251.50 281.50 L 353.50 281.50 L 353.76 227.25 L 354.00 176.61 L 354.00 206.52 L 369.75 220.17 C378.27,227.55 385.81,233.65 386.71,233.90 C386.73,233.91 386.75,233.91 386.77,233.91 C387.26,233.95 387.56,232.49 387.71,228.26 C387.92,223.69 388.00,215.92 388.00,203.50 L 388.00 176.37 L 388.24 204.25 L 388.50 235.50 L 407.79 235.77 L 424.00 236.00 L 417.97 236.00 C409.72,236.00 409.00,236.15 410.42,237.56 C411.83,238.97 411.70,239.61 409.02,244.31 C404.63,252.04 403.58,252.33 398.92,247.12 C398.19,246.31 397.51,245.49 396.93,244.72 C396.93,244.69 396.87,244.62 396.76,244.50 C395.70,243.10 395.00,241.95 395.00,241.53 C395.00,239.23 398.51,237.14 403.00,236.74 C405.48,236.53 403.08,236.27 397.68,236.17 L 396.13 236.15 L 396.23 236.00 L 392.12 236.00 C392.08,236.00 392.04,236.00 392.00,236.00 L 387.87 236.00 ZM 388.85 252.19 C389.11,252.73 389.46,253.21 389.89,253.54 C389.20,253.37 388.92,253.15 388.90,252.85 C388.88,252.62 388.87,252.41 388.85,252.19 Z" fill="rgb(247,95,67)"/>
<path d="M 342.32 320.50 C346.72,313.35 353.82,301.76 358.10,294.75 L 365.89 282.00 L 365.47 282.00 L 360.93 281.40 C358.22,281.04 356.00,280.36 356.00,279.90 C356.00,278.90 380.73,245.57 383.99,242.17 C386.38,239.68 387.36,239.55 388.07,244.26 C388.10,244.89 388.15,245.45 388.20,245.89 C388.24,247.66 388.26,249.05 388.41,250.15 C388.38,250.82 388.54,251.55 388.85,252.19 C388.87,252.41 388.88,252.62 388.90,252.85 C388.92,253.15 389.20,253.37 389.89,253.54 C390.15,253.75 390.44,253.89 390.74,253.96 L 388.03 254.00 L 387.76 285.61 L 387.50 317.22 L 360.53 291.11 L 358.52 294.27 C357.41,296.01 351.51,305.55 345.41,315.47 L 334.33 333.50 L 334.32 333.50 ZM 415.07 253.50 L 425.78 253.22 L 425.78 253.34 L 418.64 253.49 C416.23,253.55 412.09,253.62 407.77,253.69 L 412.68 253.56 L 412.68 253.56 C413.45,253.55 414.25,253.53 415.07,253.50 ZM 391.77 253.94 C391.81,253.94 391.84,253.93 391.87,253.93 C391.92,253.93 391.97,253.94 392.03,253.94 Z" fill="rgb(249,167,27)"/>
<path d="M 0.00 250.00 L 0.00 0.00 L 250.00 0.00 L 500.00 0.00 L 500.00 250.00 L 500.00 500.00 L 250.00 500.00 L 0.00 500.00 L 0.00 250.00 ZM 92.00 303.50 C92.00,281.54 92.32,273.00 93.13,273.00 C94.24,273.00 105.48,282.24 117.47,293.00 C123.96,298.83 133.91,307.59 143.00,315.48 C148.59,320.33 149.25,320.89 159.11,329.25 L 164.72 334.00 L 207.92 334.00 C237.52,334.00 250.92,333.67 250.48,332.96 C249.89,332.01 207.73,300.31 159.00,264.18 C138.72,249.14 128.11,241.19 126.64,239.93 C126.17,239.52 147.55,222.90 174.15,202.98 C200.74,183.07 222.95,166.26 223.50,165.62 C224.05,164.99 225.85,163.63 227.50,162.60 C233.65,158.75 248.00,147.77 248.00,146.90 C248.00,146.38 230.22,146.00 206.03,146.00 L 164.07 146.00 L 154.78 153.73 C149.68,157.98 145.27,161.70 145.00,161.99 C144.73,162.28 136.40,169.27 126.50,177.51 C116.60,185.75 108.28,192.72 108.00,193.00 C104.62,196.39 93.93,205.00 93.10,205.00 C92.33,205.00 92.00,196.23 92.00,175.50 L 92.00 146.00 L 66.50 146.00 L 41.00 146.00 L 41.00 240.00 L 41.00 334.00 L 66.50 334.00 L 92.00 334.00 L 92.00 303.50 ZM 345.41 315.47 C351.51,305.55 357.41,296.01 358.52,294.27 L 360.53 291.11 L 374.02 304.17 L 387.50 317.22 L 387.76 285.61 L 388.03 254.00 L 399.76 253.82 C406.22,253.73 414.71,253.58 418.64,253.49 L 425.78 253.34 L 426.45 283.92 C426.82,300.74 427.32,315.08 427.55,315.79 C427.87,316.77 431.83,317.04 444.48,316.95 L 461.00 316.83 L 461.00 244.33 C461.00,200.94 460.63,171.97 460.09,172.17 C459.58,172.35 451.89,179.64 442.99,188.37 L 426.82 204.23 L 426.95 220.14 L 427.09 236.04 L 407.79 235.77 L 388.50 235.50 L 388.24 204.25 L 387.97 173.00 L 370.99 173.00 L 354.02 173.00 L 353.76 227.25 L 353.50 281.50 L 302.50 281.50 L 251.50 281.50 L 251.25 218.00 C251.11,183.07 250.77,153.89 250.49,153.14 C250.08,152.05 249.45,152.13 247.24,153.56 C244.82,155.12 226.19,168.98 223.52,171.20 C222.96,171.67 218.45,175.01 213.50,178.63 C208.55,182.25 203.48,186.15 202.24,187.29 L 199.98 189.37 L 200.24 239.37 L 200.50 289.38 L 210.00 296.69 C215.23,300.71 223.95,307.26 229.39,311.25 C234.83,315.24 243.80,321.99 249.33,326.26 L 259.38 334.02 L 296.85 333.76 L 334.33 333.50 L 345.41 315.47 Z" fill="rgb(254,254,254)"/>
</g>
</svg>